<?xml version="1.0" encoding="iso-8859-1"?>
<!-- Uploaded to: SVG Repo, www.svgrepo.com, Generator: SVG Repo Mixer Tools -->
<svg version="1.1" id="Layer_1" xmlns="http://www.w3.org/2000/svg" xmlns:xlink="http://www.w3.org/1999/xlink" 
	 viewBox="0 0 512 512" xml:space="preserve">
<path style="fill:#FFD160;" d="M451.952,432.76H60.048C27.024,432.76,0,405.736,0,372.712V68.168C0,35.136,27.024,8.12,60.048,8.12
	h391.896C484.976,8.112,512,35.136,512,68.168v304.544C512,405.736,484.976,432.76,451.952,432.76z"/>
<path d="M512,102.624V68.168c0-33.032-27.024-60.048-60.048-60.048H60.048C27.024,8.112,0,35.136,0,68.168v34.456H512z"/>
<circle style="fill:#FC6F58;" cx="58.4" cy="55.368" r="13.424"/>
<circle style="fill:#49C3E8;" cx="96.64" cy="55.368" r="13.424"/>
<circle style="fill:#FFD160;" cx="134.904" cy="55.368" r="13.424"/>
<g>
	<rect x="429.392" y="51.608" style="fill:#FFFFFF;" width="30.416" height="6.824"/>
	<polygon style="fill:#FFFFFF;" points="450.872,75.528 445.728,71.048 459.376,55.368 445.728,39.696 450.872,35.216 
		468.448,55.368 	"/>
	<path style="fill:#FFFFFF;" d="M379.264,76.736H208.336c-11.752,0-21.368-9.616-21.368-21.368l0,0
		c0-11.752,9.616-21.368,21.368-21.368h170.928c11.752,0,21.368,9.616,21.368,21.368l0,0
		C400.632,67.12,391.016,76.736,379.264,76.736z"/>
</g>
<path d="M212.656,65.592l-4.704-19.24h3.744l1.824,8.736c0.48,2.344,0.936,4.8,1.256,6.704h0.056c0.32-2.024,0.856-4.304,1.4-6.736
	l2.08-8.704h3.68l1.92,8.856c0.48,2.28,0.88,4.424,1.16,6.504h0.064c0.336-2.12,0.8-4.304,1.304-6.656l2-8.704h3.576l-5.168,19.24
	h-3.76l-2-9.056c-0.496-2.184-0.824-4.016-1.056-6.104h-0.064c-0.336,2.056-0.704,3.92-1.28,6.104l-2.232,9.056H212.656z"/>
<path d="M237.712,65.592l-4.704-19.24h3.744l1.824,8.736c0.48,2.344,0.936,4.8,1.256,6.704h0.056c0.32-2.024,0.856-4.304,1.4-6.736
	l2.08-8.704h3.68l1.92,8.856c0.48,2.28,0.88,4.424,1.16,6.504h0.064c0.336-2.12,0.8-4.304,1.304-6.656l2-8.704h3.576l-5.168,19.24
	h-3.76l-2-9.056c-0.496-2.184-0.824-4.016-1.056-6.104h-0.064c-0.336,2.056-0.704,3.92-1.28,6.104l-2.232,9.056H237.712z"/>
<path d="M262.768,65.592l-4.704-19.24h3.744l1.824,8.736c0.48,2.344,0.936,4.8,1.256,6.704h0.056c0.32-2.024,0.856-4.304,1.4-6.736
	l2.08-8.704h3.68l1.92,8.856c0.48,2.28,0.88,4.424,1.16,6.504h0.064c0.336-2.12,0.8-4.304,1.304-6.656l2-8.704h3.576l-5.168,19.24
	h-3.76l-2-9.056c-0.496-2.184-0.824-4.016-1.056-6.104h-0.064c-0.336,2.056-0.704,3.92-1.28,6.104l-2.232,9.056H262.768z"/>
<path d="M282.064,63.648c0-1.304,0.92-2.256,2.176-2.256c1.28,0,2.176,0.92,2.176,2.256c0,1.296-0.864,2.264-2.176,2.264
	C282.96,65.912,282.064,64.936,282.064,63.648z"/>
<circle cx="256" cy="336.632" r="167.248"/>
<path style="fill:#FC6F58;" d="M256,336.624l-139.904,91.608c29.88,45.536,81.368,75.632,139.904,75.632
	c92.368,0,167.248-74.88,167.248-167.248H256V336.624z"/>
<path style="fill:#49C3E8;" d="M315.024,180.12L256,336.624h167.248C423.248,265.032,378.256,203.976,315.024,180.12z"/>
</svg>